<mxfile host="Electron" modified="2023-11-07T10:46:35.786Z" agent="Mozilla/5.0 (Macintosh; Intel Mac OS X 10_15_7) AppleWebKit/537.36 (KHTML, like Gecko) draw.io/22.0.3 Chrome/114.0.5735.289 Electron/25.8.4 Safari/537.36" etag="yXvUJy6zm0VFx1zZWko1" version="22.0.3" type="device">
  <diagram name="Page-1" id="M9vWuYs-XAKr8XbjSEmD">
    <mxGraphModel dx="1380" dy="976" grid="1" gridSize="10" guides="1" tooltips="1" connect="1" arrows="1" fold="1" page="1" pageScale="1" pageWidth="827" pageHeight="1169" math="0" shadow="0">
      <root>
        <mxCell id="0" />
        <mxCell id="1" parent="0" />
        <mxCell id="AexVxDw_94k0qQD0-kbg-1" value="&lt;b&gt;CI/CD with GitLab&lt;/b&gt;" style="text;strokeColor=none;fillColor=none;align=left;verticalAlign=middle;spacingLeft=4;spacingRight=4;overflow=hidden;points=[[0,0.5],[1,0.5]];portConstraint=eastwest;rotatable=0;whiteSpace=wrap;html=1;" vertex="1" parent="1">
          <mxGeometry x="90" y="160" width="170" height="30" as="geometry" />
        </mxCell>
        <mxCell id="AexVxDw_94k0qQD0-kbg-14" style="edgeStyle=orthogonalEdgeStyle;rounded=0;orthogonalLoop=1;jettySize=auto;html=1;entryX=0;entryY=0.5;entryDx=0;entryDy=0;" edge="1" parent="1" source="AexVxDw_94k0qQD0-kbg-2" target="AexVxDw_94k0qQD0-kbg-8">
          <mxGeometry relative="1" as="geometry" />
        </mxCell>
        <mxCell id="AexVxDw_94k0qQD0-kbg-2" value="&amp;nbsp; &amp;nbsp; &amp;nbsp; &amp;nbsp; &amp;nbsp; &amp;nbsp; &amp;nbsp; my-youtube-pipeline" style="rounded=1;whiteSpace=wrap;html=1;align=left;fillColor=#d5e8d4;strokeColor=#82b366;" vertex="1" parent="1">
          <mxGeometry x="90" y="210" width="180" height="60" as="geometry" />
        </mxCell>
        <mxCell id="AexVxDw_94k0qQD0-kbg-3" value="" style="sketch=0;html=1;aspect=fixed;strokeColor=none;shadow=0;align=center;fillColor=#2D9C5E;verticalAlign=top;labelPosition=center;verticalLabelPosition=bottom;shape=mxgraph.gcp2.check" vertex="1" parent="1">
          <mxGeometry x="100" y="225" width="37.5" height="30" as="geometry" />
        </mxCell>
        <mxCell id="AexVxDw_94k0qQD0-kbg-15" style="edgeStyle=orthogonalEdgeStyle;rounded=1;orthogonalLoop=1;jettySize=auto;html=1;entryX=0;entryY=0.5;entryDx=0;entryDy=0;" edge="1" parent="1" source="AexVxDw_94k0qQD0-kbg-5" target="AexVxDw_94k0qQD0-kbg-8">
          <mxGeometry relative="1" as="geometry" />
        </mxCell>
        <mxCell id="AexVxDw_94k0qQD0-kbg-5" value="&amp;nbsp; &amp;nbsp; &amp;nbsp; &amp;nbsp; &amp;nbsp; &amp;nbsp; &amp;nbsp; my-complex-pipeline" style="rounded=1;whiteSpace=wrap;html=1;align=left;fillColor=#d5e8d4;strokeColor=#82b366;" vertex="1" parent="1">
          <mxGeometry x="90" y="290" width="180" height="60" as="geometry" />
        </mxCell>
        <mxCell id="AexVxDw_94k0qQD0-kbg-6" value="" style="sketch=0;html=1;aspect=fixed;strokeColor=none;shadow=0;align=center;fillColor=#2D9C5E;verticalAlign=top;labelPosition=center;verticalLabelPosition=bottom;shape=mxgraph.gcp2.check" vertex="1" parent="1">
          <mxGeometry x="100" y="305" width="37.5" height="30" as="geometry" />
        </mxCell>
        <mxCell id="AexVxDw_94k0qQD0-kbg-7" value="&lt;b&gt;Streaming with Kafka&lt;/b&gt;" style="text;strokeColor=none;fillColor=none;align=left;verticalAlign=middle;spacingLeft=4;spacingRight=4;overflow=hidden;points=[[0,0.5],[1,0.5]];portConstraint=eastwest;rotatable=0;whiteSpace=wrap;html=1;" vertex="1" parent="1">
          <mxGeometry x="329" y="160" width="170" height="30" as="geometry" />
        </mxCell>
        <mxCell id="AexVxDw_94k0qQD0-kbg-8" value="&amp;nbsp; &amp;nbsp; &amp;nbsp; &amp;nbsp; &amp;nbsp; &amp;nbsp; &amp;nbsp; ..." style="rounded=1;whiteSpace=wrap;html=1;align=left;fillColor=#fff2cc;strokeColor=#d6b656;" vertex="1" parent="1">
          <mxGeometry x="329" y="210" width="180" height="60" as="geometry" />
        </mxCell>
        <mxCell id="AexVxDw_94k0qQD0-kbg-12" value="" style="verticalLabelPosition=bottom;html=1;verticalAlign=top;strokeWidth=6;shape=mxgraph.lean_mapping.physical_pull;pointerEvents=1;fillColor=#fff2cc;strokeColor=#d6b656;" vertex="1" parent="1">
          <mxGeometry x="340" y="225" width="30" height="30" as="geometry" />
        </mxCell>
      </root>
    </mxGraphModel>
  </diagram>
</mxfile>
